<svg xmlns="http://www.w3.org/2000/svg" xmlns:xlink="http://www.w3.org/1999/xlink" width="100.0" height="100.0" viewBox="-19.763105788300646 -33.24542385433339 72.83990089675703 72.8915343738104" preserveAspectRatio="xMinYMin meet"><g transform="matrix(1,0,0,-1,0,6.400686665143624)"><g><polyline fill="none" stroke="#66cc99" stroke-width="1.457830687476208" points="39.20219270805456,-4.676748019323689 40.316569520406155,-10.317062250213464" opacity="0.8" /><polyline fill="none" stroke="#66cc99" stroke-width="1.457830687476208" points="-17.06341933001137,20.99976601315609 -17.02044496660545,21.422316871997097" opacity="0.8" /><polyline fill="none" stroke="#66cc99" stroke-width="1.457830687476208" points="29.340023239775327,-4.5000055678631234 30.74002486106803,-8.339986113928369" opacity="0.8" /><polyline fill="none" stroke="#66cc99" stroke-width="1.457830687476208" points="12.322450366956776,-6.100069631289912 12.18231956276275,-5.789958437363392" opacity="0.8" /><polyline fill="none" stroke="#66cc99" stroke-width="1.457830687476208" points="48.948228256665644,11.4106400329334 41.58510396916746,-1.683240406366238" opacity="0.8" /><polyline fill="none" stroke="#66cc99" stroke-width="1.457830687476208" points="39.20219270805456,-4.676748019323689 33.90369435653969,-0.9500009997352237" opacity="0.8" /><polyline fill="none" stroke="#66cc99" stroke-width="1.457830687476208" points="41.8550517303381,3.918896300300325 41.58510396916746,-1.683240406366238" opacity="0.8" /><polyline fill="none" stroke="#66cc99" stroke-width="1.457830687476208" points="41.58510396916746,-1.683240406366238 39.20219270805456,-4.676748019323689" opacity="0.8" /><polyline fill="none" stroke="#66cc99" stroke-width="1.457830687476208" points="36.866243831271646,22.00003158165076 38.410089241756644,17.998319784575664" opacity="0.8" /><polyline fill="none" stroke="#66cc99" stroke-width="1.457830687476208" points="23.837654508262766,19.580485878234292 22.86416484890114,11.142386994109835" opacity="0.8" /><polyline fill="none" stroke="#66cc99" stroke-width="1.457830687476208" points="32.83009162018763,-26.742202312611614 16.34498829971379,-28.57667204461493" opacity="0.8" /><polyline fill="none" stroke="#66cc99" stroke-width="1.457830687476208" points="28.97828223836965,-28.955632686762513 28.10717470238629,-30.545737396044114 26.999261234290948,-29.875934745163953 28.07430790925344,-28.851492483635685 28.97828223836965,-28.955632686762513" opacity="0.8" /><polyline fill="none" stroke="#66cc99" stroke-width="1.457830687476208" points="31.191427574283814,-22.251543962394283 29.43216027491762,-22.09132826527609" opacity="0.8" /><polyline fill="none" stroke="#66cc99" stroke-width="1.457830687476208" points="29.43216027491762,-22.09132826527609 19.895770860745984,-24.767796437945155" opacity="0.8" /><polyline fill="none" stroke="#66cc99" stroke-width="1.457830687476208" points="25.264197096394966,-17.73656458067748 29.43216027491762,-22.09132826527609" opacity="0.8" /><polyline fill="none" stroke="#66cc99" stroke-width="1.457830687476208" points="19.895770860745984,-24.767796437945155 16.34498829971379,-28.57667204461493" opacity="0.8" /><polyline fill="none" stroke="#66cc99" stroke-width="1.457830687476208" points="16.34498829971379,-28.57667204461493 11.73421728065654,-17.30188929070321" opacity="0.8" /><polyline fill="none" stroke="#66cc99" stroke-width="1.457830687476208" points="25.084461118886047,-17.661797255355655 19.895770860745984,-24.767796437945155" opacity="0.8" /><polyline fill="none" stroke="#66cc99" stroke-width="1.457830687476208" points="-16.713711150359355,13.594986206211047 -16.46308466297603,16.13505452863084" opacity="0.8" /><polyline fill="none" stroke="#66cc99" stroke-width="1.457830687476208" points="-16.677475167135484,12.384852508338128 -16.841534096873925,13.151361931352696" opacity="0.8" /><polyline fill="none" stroke="#66cc99" stroke-width="1.457830687476208" points="-11.513950696205926,12.443020910084648 -12.170736487011283,14.616830375353615" opacity="0.8" /><polyline fill="none" stroke="#66cc99" stroke-width="1.457830687476208" points="-17.06341933001137,20.99976601315609 -8.684381091597249,27.395764282120012" opacity="0.8" /><polyline fill="none" stroke="#66cc99" stroke-width="1.457830687476208" points="-4.923333565292573,24.974558686346015 -12.170736487011283,14.616830375353615" opacity="0.8" /><polyline fill="none" stroke="#66cc99" stroke-width="1.457830687476208" points="-12.170736487011283,14.616830375353615 -16.46308466297603,16.13505452863084" opacity="0.8" /><polyline fill="none" stroke="#66cc99" stroke-width="1.457830687476208" points="-16.46308466297603,16.13505452863084 -17.06341933001137,20.99976601315609" opacity="0.8" /><polyline fill="none" stroke="#66cc99" stroke-width="1.457830687476208" points="2.6917236302364635,6.258839339788253 1.8652406732138083,6.142141690130536" opacity="0.8" /><polyline fill="none" stroke="#66cc99" stroke-width="1.457830687476208" points="14.851268186705461,22.862959099867986 14.495784252611692,12.859365214893138" opacity="0.8" /><polyline fill="none" stroke="#66cc99" stroke-width="1.457830687476208" points="3.611168730178804,11.660201240426517 2.1544409491902883,11.940145694985738" opacity="0.8" /><polyline fill="none" stroke="#66cc99" stroke-width="1.457830687476208" points="0.37488975029650007,14.928890138569407 4.267404449132567,19.155264757774653" opacity="0.8" /><polyline fill="none" stroke="#66cc99" stroke-width="1.457830687476208" points="2.6917236302364635,6.258839339788253 3.611168730178804,11.660201240426517" opacity="0.8" /><polyline fill="none" stroke="#66cc99" stroke-width="1.457830687476208" points="3.611168730178804,11.660201240426517 14.181349430443255,12.48365218822768" opacity="0.8" /><polyline fill="none" stroke="#66cc99" stroke-width="1.457830687476208" points="8.50027610614352,4.772008802838236 2.6917236302364635,6.258839339788253" opacity="0.8" /><polyline fill="none" stroke="#66cc99" stroke-width="1.457830687476208" points="14.495784252611692,12.859365214893138 15.27943036419132,7.421918697786808" opacity="0.8" /><polyline fill="none" stroke="#66cc99" stroke-width="1.457830687476208" points="9.649169927182747,2.2838301588995193 8.50027610614352,4.772008802838236" opacity="0.8" /><polyline fill="none" stroke="#66cc99" stroke-width="1.457830687476208" points="8.50027610614352,4.772008802838236 14.181349430443255,12.48365218822768" opacity="0.8" /><polyline fill="none" stroke="#66cc99" stroke-width="1.457830687476208" points="14.181349430443255,12.48365218822768 14.495784252611692,12.859365214893138" opacity="0.8" /><polyline fill="none" stroke="#66cc99" stroke-width="1.457830687476208" points="0.8995895377374232,10.997326835908225 1.8652406732138083,6.142141690130536" opacity="0.8" /><polyline fill="none" stroke="#66cc99" stroke-width="1.457830687476208" points="1.8652406732138083,6.142141690130536 1.0601417594219384,5.92880943757136" opacity="0.8" /><polyline fill="none" stroke="#66cc99" stroke-width="1.457830687476208" points="0.0238063910154942,11.018688928857316 1.0601417594219384,5.92880943757136" opacity="0.8" /><polyline fill="none" stroke="#66cc99" stroke-width="1.457830687476208" points="1.0601417594219384,5.92880943757136 -2.856094788014195,4.994506547980308" opacity="0.8" /><polyline fill="none" stroke="#66cc99" stroke-width="1.457830687476208" points="-8.029933106161174,10.206568550627125 -5.4043713995130815,10.370753555556803" opacity="0.8" /><polyline fill="none" stroke="#66cc99" stroke-width="1.457830687476208" points="-2.827491051731215,9.642493825998386 -2.856094788014195,4.994506547980308" opacity="0.8" /><polyline fill="none" stroke="#66cc99" stroke-width="1.457830687476208" points="-2.856094788014195,4.994506547980308 -7.712129093901714,4.364541313680888" opacity="0.8" /><polyline fill="none" stroke="#66cc99" stroke-width="1.457830687476208" points="-13.700486306299139,12.586204668229911 -11.513950696205926,12.443020910084648" opacity="0.8" /><polyline fill="none" stroke="#66cc99" stroke-width="1.457830687476208" points="-11.513950696205926,12.443020910084648 -8.029933106161174,10.206568550627125" opacity="0.8" /><polyline fill="none" stroke="#66cc99" stroke-width="1.457830687476208" points="-8.029933106161174,10.206568550627125 -8.43932408171133,7.68605809033302" opacity="0.8" /><polyline fill="none" stroke="#66cc99" stroke-width="1.457830687476208" points="-13.246539510769724,8.90304786533487 -15.130329325540911,11.040411867971095" opacity="0.8" /><polyline fill="none" stroke="#66cc99" stroke-width="1.457830687476208" points="-16.677475167135484,12.384852508338128 -13.700486306299139,12.586204668229911" opacity="0.8" /><polyline fill="none" stroke="#66cc99" stroke-width="1.457830687476208" points="-13.700486306299139,12.586204668229911 -15.130329325540911,11.040411867971095" opacity="0.8" /><polyline fill="none" stroke="#66cc99" stroke-width="1.457830687476208" points="-15.130329325540911,11.040411867971095 -16.677475167135484,12.384852508338128" opacity="0.8" /><polyline fill="none" stroke="#66cc99" stroke-width="1.457830687476208" points="-8.43932408171133,7.68605809033302 -7.712129093901714,4.364541313680888" opacity="0.8" /><polyline fill="none" stroke="#66cc99" stroke-width="1.457830687476208" points="-7.712129093901714,4.364541313680888 -11.438797129481653,6.785891247920759" opacity="0.8" /><polyline fill="none" stroke="#66cc99" stroke-width="1.457830687476208" points="-10.230082994581382,8.406234865802595 -8.43932408171133,7.68605809033302" opacity="0.8" /><polyline fill="none" stroke="#66cc99" stroke-width="1.457830687476208" points="-13.246539510769724,8.90304786533487 -10.230082994581382,8.406234865802595" opacity="0.8" /><polyline fill="none" stroke="#66cc99" stroke-width="1.457830687476208" points="-10.230082994581382,8.406234865802595 -11.438797129481653,6.785891247920759" opacity="0.8" /><polyline fill="none" stroke="#66cc99" stroke-width="1.457830687476208" points="-11.438797129481653,6.785891247920759 -13.246539510769724,8.90304786533487" opacity="0.8" /><polyline fill="none" stroke="#66cc99" stroke-width="1.457830687476208" points="-5.4043713995130815,10.370753555556803 0.37488975029650007,14.928890138569407" opacity="0.8" /><polyline fill="none" stroke="#66cc99" stroke-width="1.457830687476208" points="0.37488975029650007,14.928890138569407 2.1544409491902883,11.940145694985738" opacity="0.8" /><polyline fill="none" stroke="#66cc99" stroke-width="1.457830687476208" points="2.1544409491902883,11.940145694985738 0.8995895377374232,10.997326835908225" opacity="0.8" /><polyline fill="none" stroke="#66cc99" stroke-width="1.457830687476208" points="0.8995895377374232,10.997326835908225 0.0238063910154942,11.018688928857316" opacity="0.8" /><polyline fill="none" stroke="#66cc99" stroke-width="1.457830687476208" points="0.0238063910154942,11.018688928857316 -2.827491051731215,9.642493825998386" opacity="0.8" /><polyline fill="none" stroke="#66cc99" stroke-width="1.457830687476208" points="-2.827491051731215,9.642493825998386 -5.4043713995130815,10.370753555556803" opacity="0.8" /><polyline fill="none" stroke="#66cc99" stroke-width="1.457830687476208" points="27.37420396013492,5.233964062862363 18.45306991197316,3.504356226315238" opacity="0.8" /><polyline fill="none" stroke="#66cc99" stroke-width="1.457830687476208" points="16.012882419312845,2.267664250721829 15.27943036419132,7.421918697786808" opacity="0.8" /><polyline fill="none" stroke="#66cc99" stroke-width="1.457830687476208" points="15.27943036419132,7.421918697786808 22.86416484890114,11.142386994109835" opacity="0.8" /><polyline fill="none" stroke="#66cc99" stroke-width="1.457830687476208" points="22.86416484890114,11.142386994109835 24.567393578386017,8.229203737410288" opacity="0.8" /><polyline fill="none" stroke="#66cc99" stroke-width="1.457830687476208" points="18.45306991197316,3.504356226315238 12.995532036365656,-4.781104730149323" opacity="0.8" /><polyline fill="none" stroke="#66cc99" stroke-width="1.457830687476208" points="11.914984642887202,-5.0379550301689875 11.093796127436157,-3.9787993675984445" opacity="0.8" /><polyline fill="none" stroke="#66cc99" stroke-width="1.457830687476208" points="13.07584252669864,2.2670868968583378 16.012882419312845,2.267664250721829" opacity="0.8" /><polyline fill="none" stroke="#66cc99" stroke-width="1.457830687476208" points="16.012882419312845,2.267664250721829 18.45306991197316,3.504356226315238" opacity="0.8" /><polyline fill="none" stroke="#66cc99" stroke-width="1.457830687476208" points="11.276419982165955,2.2610246812917083 13.07584252669864,2.2670868968583378" opacity="0.8" /><polyline fill="none" stroke="#66cc99" stroke-width="1.457830687476208" points="13.07584252669864,2.2670868968583378 11.093796127436157,-3.9787993675984445" opacity="0.8" /><polyline fill="none" stroke="#66cc99" stroke-width="1.457830687476208" points="11.093796127436157,-3.9787993675984445 9.492880762348097,1.0101153668098846" opacity="0.8" /><polyline fill="none" stroke="#66cc99" stroke-width="1.457830687476208" points="9.649169927182747,2.2838301588995193 11.276419982165955,2.2610246812917083" opacity="0.8" /><polyline fill="none" stroke="#66cc99" stroke-width="1.457830687476208" points="11.276419982165955,2.2610246812917083 9.492880762348097,1.0101153668098846" opacity="0.8" /><polyline fill="none" stroke="#66cc99" stroke-width="1.457830687476208" points="9.492880762348097,1.0101153668098846 9.649169927182747,2.2838301588995193" opacity="0.8" /><polyline fill="none" stroke="#66cc99" stroke-width="1.457830687476208" points="30.74002486106803,-8.339986113928369 32.759407387257575,-9.230626617593064" opacity="0.8" /><polyline fill="none" stroke="#66cc99" stroke-width="1.457830687476208" points="30.2742515207293,-15.507762159911188 25.264197096394966,-17.73656458067748" opacity="0.8" /><polyline fill="none" stroke="#66cc99" stroke-width="1.457830687476208" points="25.264197096394966,-17.73656458067748 25.084461118886047,-17.661797255355655" opacity="0.8" /><polyline fill="none" stroke="#66cc99" stroke-width="1.457830687476208" points="25.084461118886047,-17.661797255355655 23.2150419312378,-17.523087989652428" opacity="0.8" /><polyline fill="none" stroke="#66cc99" stroke-width="1.457830687476208" points="23.912189244154,-10.926820099290769 30.74002486106803,-8.339986113928369" opacity="0.8" /><polyline fill="none" stroke="#66cc99" stroke-width="1.457830687476208" points="32.759407387257575,-9.230626617593064 34.559998834474904,-11.5200511940257" opacity="0.8" /><polyline fill="none" stroke="#66cc99" stroke-width="1.457830687476208" points="33.21404177260148,-13.971856544564613 32.759407387257575,-9.230626617593064" opacity="0.8" /><polyline fill="none" stroke="#66cc99" stroke-width="1.457830687476208" points="34.559998834474904,-11.5200511940257 40.316569520406155,-10.317062250213464" opacity="0.8" /><polyline fill="none" stroke="#66cc99" stroke-width="1.457830687476208" points="40.316569520406155,-10.317062250213464 32.83009162018763,-26.742202312611614" opacity="0.8" /><polyline fill="none" stroke="#66cc99" stroke-width="1.457830687476208" points="32.83009162018763,-26.742202312611614 32.071680054799955,-26.733830681591023" opacity="0.8" /><polyline fill="none" stroke="#66cc99" stroke-width="1.457830687476208" points="31.83776199990885,-25.843334516392197 31.191427574283814,-22.251543962394283" opacity="0.8" /><polyline fill="none" stroke="#66cc99" stroke-width="1.457830687476208" points="31.191427574283814,-22.251543962394283 30.2742515207293,-15.507762159911188" opacity="0.8" /><polyline fill="none" stroke="#66cc99" stroke-width="1.457830687476208" points="30.2742515207293,-15.507762159911188 33.21404177260148,-13.971856544564613" opacity="0.8" /><polyline fill="none" stroke="#66cc99" stroke-width="1.457830687476208" points="33.21404177260148,-13.971856544564613 34.559998834474904,-11.5200511940257" opacity="0.8" /><polyline fill="none" stroke="#66cc99" stroke-width="1.457830687476208" points="32.071680054799955,-26.733830681591023 31.83776199990885,-25.843334516392197" opacity="0.8" /><polyline fill="none" stroke="#66cc99" stroke-width="1.457830687476208" points="31.83776199990885,-25.843334516392197 32.071680054799955,-26.733830681591023" opacity="0.8" /><polyline fill="none" stroke="#66cc99" stroke-width="1.457830687476208" points="12.995532036365656,-4.781104730149323 12.18231956276275,-5.789958437363392" opacity="0.8" /><polyline fill="none" stroke="#66cc99" stroke-width="1.457830687476208" points="12.18231956276275,-5.789958437363392 11.914984642887202,-5.0379550301689875" opacity="0.8" /><polyline fill="none" stroke="#66cc99" stroke-width="1.457830687476208" points="11.914984642887202,-5.0379550301689875 12.995532036365656,-4.781104730149323" opacity="0.8" /><polyline fill="none" stroke="#66cc99" stroke-width="1.457830687476208" points="12.322450366956776,-6.100069631289912 23.912189244154,-10.926820099290769" opacity="0.8" /><polyline fill="none" stroke="#66cc99" stroke-width="1.457830687476208" points="23.912189244154,-10.926820099290769 23.2150419312378,-17.523087989652428" opacity="0.8" /><polyline fill="none" stroke="#66cc99" stroke-width="1.457830687476208" points="23.2150419312378,-17.523087989652428 11.73421728065654,-17.30188929070321" opacity="0.8" /><polyline fill="none" stroke="#66cc99" stroke-width="1.457830687476208" points="11.73421728065654,-17.30188929070321 12.322450366956776,-6.100069631289912" opacity="0.8" /><polyline fill="none" stroke="#66cc99" stroke-width="1.457830687476208" points="30.4696645460087,-2.413881720611549 29.340023239775327,-4.5000055678631234" opacity="0.8" /><polyline fill="none" stroke="#66cc99" stroke-width="1.457830687476208" points="29.340023239775327,-4.5000055678631234 29.024900827792393,-2.8392471795370575" opacity="0.8" /><polyline fill="none" stroke="#66cc99" stroke-width="1.457830687476208" points="49.54354351805517,-12.469798299465083 50.377108650167116,-15.706083212019653 45.40947851738711,-25.60142324759031 43.96306458361601,-17.409926632408585 49.54354351805517,-12.469798299465083" opacity="0.8" /><polyline fill="none" stroke="#66cc99" stroke-width="1.457830687476208" points="-16.713711150359355,13.594986206211047 -16.841534096873925,13.151361931352696" opacity="0.8" /><polyline fill="none" stroke="#66cc99" stroke-width="1.457830687476208" points="-16.841534096873925,13.151361931352696 -16.713711150359355,13.594986206211047" opacity="0.8" /><polyline fill="none" stroke="#66cc99" stroke-width="1.457830687476208" points="8.420997000532278,36.94642406118774 11.488816475863374,33.13697110065448" opacity="0.8" /><polyline fill="none" stroke="#66cc99" stroke-width="1.457830687476208" points="-8.684381091597249,27.395764282120012 -8.665609889661543,27.656439551485285" opacity="0.8" /><polyline fill="none" stroke="#66cc99" stroke-width="1.457830687476208" points="-2.1698801531484637,35.16839066934048 8.420997000532278,36.94642406118774" opacity="0.8" /><polyline fill="none" stroke="#66cc99" stroke-width="1.457830687476208" points="8.420997000532278,36.94642406118774 9.482154361241982,30.307576323393775" opacity="0.8" /><polyline fill="none" stroke="#66cc99" stroke-width="1.457830687476208" points="11.999489431088605,23.47163441045125 4.267404449132567,19.155264757774653" opacity="0.8" /><polyline fill="none" stroke="#66cc99" stroke-width="1.457830687476208" points="4.267404449132567,19.155264757774653 -4.923333565292573,24.974558686346015" opacity="0.8" /><polyline fill="none" stroke="#66cc99" stroke-width="1.457830687476208" points="-4.923333565292573,24.974558686346015 -8.684381091597249,27.395764282120012" opacity="0.8" /><polyline fill="none" stroke="#66cc99" stroke-width="1.457830687476208" points="36.4294867811046,14.422117784891952 38.410089241756644,17.998319784575664" opacity="0.8" /><polyline fill="none" stroke="#66cc99" stroke-width="1.457830687476208" points="38.410089241756644,17.998319784575664 43.08123064652653,12.699654702405503" opacity="0.8" /><polyline fill="none" stroke="#66cc99" stroke-width="1.457830687476208" points="-2.1698801531484637,35.16839066934048 -8.665609889661543,27.656439551485285" opacity="0.8" /><polyline fill="none" stroke="#66cc99" stroke-width="1.457830687476208" points="-8.665609889661543,27.656439551485285 -17.02044496660545,21.422316871997097" opacity="0.8" /><polyline fill="none" stroke="#66cc99" stroke-width="1.457830687476208" points="-17.02044496660545,21.422316871997097 -2.1698801531484637,35.16839066934048" opacity="0.8" /><polyline fill="none" stroke="#66cc99" stroke-width="1.457830687476208" points="36.866243831271646,22.00003158165076 25.000025089666096,22.00003158165076" opacity="0.8" /><polyline fill="none" stroke="#66cc99" stroke-width="1.457830687476208" points="25.16484036820048,31.569166684350137 36.866243831271646,22.00003158165076" opacity="0.8" /><polyline fill="none" stroke="#66cc99" stroke-width="1.457830687476208" points="25.000025089666096,22.00003158165076 23.837654508262766,19.580485878234292" opacity="0.8" /><polyline fill="none" stroke="#66cc99" stroke-width="1.457830687476208" points="23.837654508262766,19.580485878234292 14.851268186705461,22.862959099867986" opacity="0.8" /><polyline fill="none" stroke="#66cc99" stroke-width="1.457830687476208" points="14.851268186705461,22.862959099867986 11.999489431088605,23.47163441045125" opacity="0.8" /><polyline fill="none" stroke="#66cc99" stroke-width="1.457830687476208" points="11.999489431088605,23.47163441045125 9.482154361241982,30.307576323393775" opacity="0.8" /><polyline fill="none" stroke="#66cc99" stroke-width="1.457830687476208" points="9.482154361241982,30.307576323393775 11.488816475863374,33.13697110065448" opacity="0.8" /><polyline fill="none" stroke="#66cc99" stroke-width="1.457830687476208" points="11.488816475863374,33.13697110065448 25.16484036820048,31.569166684350137" opacity="0.8" /><polyline fill="none" stroke="#66cc99" stroke-width="1.457830687476208" points="25.16484036820048,31.569166684350137 25.000025089666096,22.00003158165076" opacity="0.8" /><polyline fill="none" stroke="#66cc99" stroke-width="1.457830687476208" points="47.78943314229768,8.003025361388474 41.8550517303381,3.918896300300325" opacity="0.8" /><polyline fill="none" stroke="#66cc99" stroke-width="1.457830687476208" points="41.8550517303381,3.918896300300325 35.29798898237208,5.505969901798615" opacity="0.8" /><polyline fill="none" stroke="#66cc99" stroke-width="1.457830687476208" points="33.97499742030279,8.684591597237223 36.4294867811046,14.422117784891952" opacity="0.8" /><polyline fill="none" stroke="#66cc99" stroke-width="1.457830687476208" points="36.4294867811046,14.422117784891952 42.35156033538473,12.542253605371812" opacity="0.8" /><polyline fill="none" stroke="#66cc99" stroke-width="1.457830687476208" points="42.35156033538473,12.542253605371812 43.08123064652653,12.699654702405503" opacity="0.8" /><polyline fill="none" stroke="#66cc99" stroke-width="1.457830687476208" points="43.08123064652653,12.699654702405503 43.14531401723744,11.462024526783921" opacity="0.8" /><polyline fill="none" stroke="#66cc99" stroke-width="1.457830687476208" points="42.77683463564972,10.926889664562573 42.35156033538473,12.542253605371812" opacity="0.8" /><polyline fill="none" stroke="#66cc99" stroke-width="1.457830687476208" points="48.948228256665644,11.4106400329334 47.78943314229768,8.003025361388474" opacity="0.8" /><polyline fill="none" stroke="#66cc99" stroke-width="1.457830687476208" points="47.78943314229768,8.003025361388474 42.77683463564972,10.926889664562573" opacity="0.8" /><polyline fill="none" stroke="#66cc99" stroke-width="1.457830687476208" points="42.77683463564972,10.926889664562573 43.14531401723744,11.462024526783921" opacity="0.8" /><polyline fill="none" stroke="#66cc99" stroke-width="1.457830687476208" points="43.14531401723744,11.462024526783921 48.948228256665644,11.4106400329334" opacity="0.8" /><polyline fill="none" stroke="#66cc99" stroke-width="1.457830687476208" points="33.90369435653969,-0.9500009997352237 30.41912669464334,-1.1346820668187618" opacity="0.8" /><polyline fill="none" stroke="#66cc99" stroke-width="1.457830687476208" points="29.579442013182387,-1.3413025807148813 30.833880870746555,3.509191564921956" opacity="0.8" /><polyline fill="none" stroke="#66cc99" stroke-width="1.457830687476208" points="34.00497633621476,4.249864402545391 33.90369435653969,-0.9500009997352237" opacity="0.8" /><polyline fill="none" stroke="#66cc99" stroke-width="1.457830687476208" points="30.41912669464334,-1.1346820668187618 30.4696645460087,-2.413881720611549" opacity="0.8" /><polyline fill="none" stroke="#66cc99" stroke-width="1.457830687476208" points="30.4696645460087,-2.413881720611549 29.024900827792393,-2.8392471795370575" opacity="0.8" /><polyline fill="none" stroke="#66cc99" stroke-width="1.457830687476208" points="29.024900827792393,-2.8392471795370575 29.579442013182387,-1.3413025807148813" opacity="0.8" /><polyline fill="none" stroke="#66cc99" stroke-width="1.457830687476208" points="29.579442013182387,-1.3413025807148813 30.41912669464334,-1.1346820668187618" opacity="0.8" /><polyline fill="none" stroke="#66cc99" stroke-width="1.457830687476208" points="30.833880870746555,3.509191564921956 27.37420396013492,5.233964062862363" opacity="0.8" /><polyline fill="none" stroke="#66cc99" stroke-width="1.457830687476208" points="27.37420396013492,5.233964062862363 24.567393578386017,8.229203737410288" opacity="0.8" /><polyline fill="none" stroke="#66cc99" stroke-width="1.457830687476208" points="24.567393578386017,8.229203737410288 33.97499742030279,8.684591597237223" opacity="0.8" /><polyline fill="none" stroke="#66cc99" stroke-width="1.457830687476208" points="33.97499742030279,8.684591597237223 35.29798898237208,5.505969901798615" opacity="0.8" /><polyline fill="none" stroke="#66cc99" stroke-width="1.457830687476208" points="35.29798898237208,5.505969901798615 34.00497633621476,4.249864402545391" opacity="0.8" /><polyline fill="none" stroke="#66cc99" stroke-width="1.457830687476208" points="34.00497633621476,4.249864402545391 30.833880870746555,3.509191564921956" opacity="0.8" /></g></g></svg>