<svg xmlns="http://www.w3.org/2000/svg" xmlns:xlink="http://www.w3.org/1999/xlink" width="100.0" height="100.0" viewBox="-82.97575297975267 -57.727030541120264 50.9189635153224 72.17650775977472" preserveAspectRatio="xMinYMin meet"><g transform="matrix(1,0,0,-1,0,-43.27755332246581)"><g><polyline fill="none" stroke="#66cc99" stroke-width="1.4435301551954944" points="-68.63402724102814,-52.63637867677012 -66.95990668944665,-54.896837042809004" opacity="0.8" /><polyline fill="none" stroke="#66cc99" stroke-width="1.4435301551954944" points="-58.42708747121122,-33.909442649351206 -68.57156806867735,-52.29946708154288" opacity="0.8" /><polyline fill="none" stroke="#66cc99" stroke-width="1.4435301551954944" points="-68.63402724102814,-52.63637867677012 -66.95990668944665,-54.896837042809004" opacity="0.8" /><polyline fill="none" stroke="#66cc99" stroke-width="1.4435301551954944" points="-66.95990668944665,-54.896837042809004 -71.00570191251819,-55.0538265500175 -74.66255107876859,-52.837464066367474 -68.63402724102814,-52.63637867677012" opacity="0.8" /><polyline fill="none" stroke="#66cc99" stroke-width="1.4435301551954944" points="-67.10667174017226,-22.735899907860087 -73.41542159556722,-49.31843572381318 -68.57156806867735,-52.29946708154288" opacity="0.8" /><polyline fill="none" stroke="#66cc99" stroke-width="1.4435301551954944" points="-68.57156806867735,-52.29946708154288 -75.6080279672534,-48.67380564068095 -70.37256756678305,-18.347951314961087" opacity="0.8" /><polyline fill="none" stroke="#66cc99" stroke-width="1.4435301551954944" points="-61.19998530141202,-51.85000210750209 -58.54999853309434,-51.100031860885366 -57.749979627453335,-51.54997317933467 -59.400012785213434,-52.199979149363074 -61.19998530141202,-51.85000210750209" opacity="0.8" /><polyline fill="none" stroke="#66cc99" stroke-width="1.4435301551954944" points="-53.37368295427453,-33.768376655227584 -58.42708747121122,-33.909442649351206" opacity="0.8" /><polyline fill="none" stroke="#66cc99" stroke-width="1.4435301551954944" points="-58.42708747121122,-33.909442649351206 -57.62515464474333,-30.21627640088164" opacity="0.8" /><polyline fill="none" stroke="#66cc99" stroke-width="1.4435301551954944" points="-53.37368295427453,-33.768376655227584 -57.62515464474333,-30.21627640088164" opacity="0.8" /><polyline fill="none" stroke="#66cc99" stroke-width="1.4435301551954944" points="-57.62515464474333,-30.21627640088164 -54.62529381307057,-25.739251403589087" opacity="0.8" /><polyline fill="none" stroke="#66cc99" stroke-width="1.4435301551954944" points="-54.524742948165056,2.3118542238362494 -34.729993455533034,-7.343238641690284 -53.37368295427453,-33.768376655227584" opacity="0.8" /><polyline fill="none" stroke="#66cc99" stroke-width="1.4435301551954944" points="-69.52969550701798,-10.95175168384543 -58.16637410979186,-20.176705548476917" opacity="0.8" /><polyline fill="none" stroke="#66cc99" stroke-width="1.4435301551954944" points="-62.685047820093146,-22.249007873149743 -67.10667174017226,-22.735899907860087" opacity="0.8" /><polyline fill="none" stroke="#66cc99" stroke-width="1.4435301551954944" points="-67.10667174017226,-22.735899907860087 -69.59042748252497,-17.580016079222972" opacity="0.8" /><polyline fill="none" stroke="#66cc99" stroke-width="1.4435301551954944" points="-69.89362055010218,-4.298172985615032 -73.98721711285026,-7.523841221721206 -69.52969550701798,-10.95175168384543" opacity="0.8" /><polyline fill="none" stroke="#66cc99" stroke-width="1.4435301551954944" points="-69.52969550701798,-10.95175168384543 -69.59042748252497,-17.580016079222972" opacity="0.8" /><polyline fill="none" stroke="#66cc99" stroke-width="1.4435301551954944" points="-69.59042748252497,-17.580016079222972 -70.37256756678305,-18.347951314961087" opacity="0.8" /><polyline fill="none" stroke="#66cc99" stroke-width="1.4435301551954944" points="-70.37256756678305,-18.347951314961087 -80.3025489886499,-3.404823072033288" opacity="0.8" /><polyline fill="none" stroke="#66cc99" stroke-width="1.4435301551954944" points="-66.87634770700429,1.2533488988999295 -69.89362055010218,-4.298172985615032" opacity="0.8" /><polyline fill="none" stroke="#66cc99" stroke-width="1.4435301551954944" points="-69.89362055010218,-4.298172985615032 -75.37322255849077,-0.15200320464137462" opacity="0.8" /><polyline fill="none" stroke="#66cc99" stroke-width="1.4435301551954944" points="-78.85525139555307,1.3809411511825118 -71.33158194404345,11.776273227551684" opacity="0.8" /><polyline fill="none" stroke="#66cc99" stroke-width="1.4435301551954944" points="-60.7335954725954,5.200270618709098 -66.87634770700429,1.2533488988999295" opacity="0.8" /><polyline fill="none" stroke="#66cc99" stroke-width="1.4435301551954944" points="-66.87634770700429,1.2533488988999295 -71.33158194404345,11.776273227551684" opacity="0.8" /><polyline fill="none" stroke="#66cc99" stroke-width="1.4435301551954944" points="-71.33158194404345,11.776273227551684 -59.75828942780852,8.367008246561028" opacity="0.8" /><polyline fill="none" stroke="#66cc99" stroke-width="1.4435301551954944" points="-56.539401363946034,1.8995441136601556 -60.7335954725954,5.200270618709098" opacity="0.8" /><polyline fill="none" stroke="#66cc99" stroke-width="1.4435301551954944" points="-60.7335954725954,5.200270618709098 -59.75828942780852,8.367008246561028" opacity="0.8" /><polyline fill="none" stroke="#66cc99" stroke-width="1.4435301551954944" points="-59.75828942780852,8.367008246561028 -57.14742133395269,5.97317344613608" opacity="0.8" /><polyline fill="none" stroke="#66cc99" stroke-width="1.4435301551954944" points="-54.524742948165056,2.3118542238362494 -56.539401363946034,1.8995441136601556" opacity="0.8" /><polyline fill="none" stroke="#66cc99" stroke-width="1.4435301551954944" points="-56.539401363946034,1.8995441136601556 -57.14742133395269,5.97317344613608" opacity="0.8" /><polyline fill="none" stroke="#66cc99" stroke-width="1.4435301551954944" points="-57.14742133395269,5.97317344613608 -54.524742948165056,2.3118542238362494" opacity="0.8" /><polyline fill="none" stroke="#66cc99" stroke-width="1.4435301551954944" points="-75.37322255849077,-0.15200320464137462 -80.3025489886499,-3.404823072033288" opacity="0.8" /><polyline fill="none" stroke="#66cc99" stroke-width="1.4435301551954944" points="-80.3025489886499,-3.404823072033288 -78.85525139555307,1.3809411511825118" opacity="0.8" /><polyline fill="none" stroke="#66cc99" stroke-width="1.4435301551954944" points="-78.85525139555307,1.3809411511825118 -75.37322255849077,-0.15200320464137462" opacity="0.8" /><polyline fill="none" stroke="#66cc99" stroke-width="1.4435301551954944" points="-58.16637410979186,-20.176705548476917 -54.62529381307057,-25.739251403589087" opacity="0.8" /><polyline fill="none" stroke="#66cc99" stroke-width="1.4435301551954944" points="-54.62529381307057,-25.739251403589087 -62.685047820093146,-22.249007873149743" opacity="0.8" /><polyline fill="none" stroke="#66cc99" stroke-width="1.4435301551954944" points="-62.685047820093146,-22.249007873149743 -58.16637410979186,-20.176705548476917" opacity="0.8" /></g></g></svg>